# xmcd
#
# Track frame offsets:
# 150
# 17310
# 33708
# 46670
# 67786
# 87977
# 103690
# 120958
# 139127
# 151225
# 174266
#
# Disc length: 2512 seconds
#
#
# Revision: 0
# Processed by: cddbd v1.5.2PL0 Copyright (c) Steve Scherf et al.
# Submitted via: Nero 7, 11, 10, 0 
#
DISCID=7809ce0b
DTITLE=Robert Thomas - Natural Born Thing
DYEAR=1996
DGENRE=Blues
TTITLE0=I Love Money
TTITLE1=You're Mine
TTITLE2=Treat Me So Lowdown
TTITLE3=No Mercy
TTITLE4=Rainin' Inside
TTITLE5=In Between
TTITLE6=Peanut Butter and Jelly
TTITLE7=You Don't Have To Love Me
TTITLE8=Hot For You
TTITLE9=One Good Woman
TTITLE10=Jumpin' At Shadows
EXTD=
EXTT0=I Love Money
EXTT1=You're Mine
EXTT2=Treat Me So Lowdown
EXTT3=No Mercy
EXTT4=Rainin' Inside
EXTT5=In Between
EXTT6=Peanut Butter and Jelly
EXTT7=You Don't Have To Love Me
EXTT8=Hot For You
EXTT9=One Good Woman
EXTT10=Jumpin' At Shadows
PLAYORDER=
